
<global>
amp_veltrack=0
ampeg_release=0.35
</global>

<group>
group_label=PP
xf_cccurve=gain
xfin_hicc1=42
xfout_hicc1=85
xfout_locc1=42

<region>
hikey=a#2
hivel=127
lokey=a2
lovel=0
pitch_keycenter=a#2
sample=Horn_flatter_PP_A#2.opus
</region>

<region>
hikey=a#3
hivel=127
lokey=a3
lovel=0
pitch_keycenter=a#3
sample=Horn_flatter_PP_A#3.opus
</region>

<region>
hikey=a#4
hivel=127
lokey=a4
lovel=0
pitch_keycenter=a#4
sample=Horn_flatter_PP_A#4.opus
</region>

<region>
hikey=c3
hivel=127
lokey=b2
lovel=0
pitch_keycenter=c3
sample=Horn_flatter_PP_C3.opus
</region>

<region>
hikey=c4
hivel=127
lokey=b3
lovel=0
pitch_keycenter=c4
sample=Horn_flatter_PP_C4.opus
</region>

<region>
hikey=c5
hivel=127
lokey=b4
lovel=0
pitch_keycenter=c5
sample=Horn_flatter_PP_C5.opus
</region>

<region>
hikey=d3
hivel=127
lokey=c#3
lovel=0
pitch_keycenter=d3
sample=Horn_flatter_PP_D3.opus
</region>

<region>
hikey=d4
hivel=127
lokey=c#4
lovel=0
pitch_keycenter=d4
sample=Horn_flatter_PP_D4.opus
</region>

<region>
hikey=d5
hivel=127
lokey=c#5
lovel=0
pitch_keycenter=d5
sample=Horn_flatter_PP_D5.opus
</region>

<region>
hikey=e3
hivel=127
lokey=d#3
lovel=0
pitch_keycenter=e3
sample=Horn_flatter_PP_E3.opus
</region>

<region>
hikey=e4
hivel=127
lokey=d#4
lovel=0
pitch_keycenter=e4
sample=Horn_flatter_PP_E4.opus
</region>

<region>
hikey=A#5
hivel=127
lokey=d#5
lovel=0
pitch_keycenter=E5
sample=Horn_flatter_PP_E5.opus
</region>

<region>
hivel=127
key=f#2
lovel=0
sample=Horn_flatter_PP_F#2.opus
</region>

<region>
hikey=f#3
hivel=127
lokey=f3
lovel=0
pitch_keycenter=f#3
sample=Horn_flatter_PP_F#3.opus
</region>

<region>
hikey=f#4
hivel=127
lokey=f4
lovel=0
pitch_keycenter=f#4
sample=Horn_flatter_PP_F#4.opus
</region>

<region>
hikey=F2
hivel=127
lokey=C2
lovel=0
pitch_keycenter=F2
sample=Horn_flatter_PP_F2.opus
</region>

<region>
hikey=g#2
hivel=127
lokey=g2
lovel=0
pitch_keycenter=g#2
sample=Horn_flatter_PP_G#2.opus
</region>

<region>
hikey=g#3
hivel=127
lokey=g3
lovel=0
pitch_keycenter=g#3
sample=Horn_flatter_PP_G#3.opus
</region>

<region>
hikey=g#4
hivel=127
lokey=g4
lovel=0
pitch_keycenter=g#4
sample=Horn_flatter_PP_G#4.opus
</region>
</group>

<group>
group_label=MF
xf_cccurve=gain
xfin_hicc1=85
xfin_locc1=42
xfout_hicc1=127
xfout_locc1=85

<region>
hikey=a#2
hivel=127
lokey=a2
lovel=0
pitch_keycenter=a#2
sample=Horn_flatter_MF_A#2.opus
</region>

<region>
hikey=a#3
hivel=127
lokey=a3
lovel=0
pitch_keycenter=a#3
sample=Horn_flatter_MF_A#3.opus
</region>

<region>
hikey=a#4
hivel=127
lokey=a4
lovel=0
pitch_keycenter=a#4
sample=Horn_flatter_MF_A#4.opus
</region>

<region>
hikey=c3
hivel=127
lokey=b2
lovel=0
pitch_keycenter=c3
sample=Horn_flatter_MF_C3.opus
</region>

<region>
hikey=c4
hivel=127
lokey=b3
lovel=0
pitch_keycenter=c4
sample=Horn_flatter_MF_C4.opus
</region>

<region>
hikey=c5
hivel=127
lokey=b4
lovel=0
pitch_keycenter=c5
sample=Horn_flatter_MF_C5.opus
</region>

<region>
hikey=d3
hivel=127
lokey=c#3
lovel=0
pitch_keycenter=d3
sample=Horn_flatter_MF_D3.opus
</region>

<region>
hikey=d4
hivel=127
lokey=c#4
lovel=0
pitch_keycenter=d4
sample=Horn_flatter_MF_D4.opus
</region>

<region>
hikey=d5
hivel=127
lokey=c#5
lovel=0
pitch_keycenter=d5
sample=Horn_flatter_MF_D5.opus
</region>

<region>
hikey=e3
hivel=127
lokey=d#3
lovel=0
pitch_keycenter=e3
sample=Horn_flatter_MF_E3.opus
</region>

<region>
hikey=e4
hivel=127
lokey=d#4
lovel=0
pitch_keycenter=e4
sample=Horn_flatter_MF_E4.opus
</region>

<region>
hikey=A#5
hivel=127
lokey=d#5
lovel=0
pitch_keycenter=E5
sample=Horn_flatter_MF_E5.opus
</region>

<region>
hivel=127
key=f#2
lovel=0
sample=Horn_flatter_MF_F#2.opus
</region>

<region>
hikey=f#3
hivel=127
lokey=f3
lovel=0
pitch_keycenter=f#3
sample=Horn_flatter_MF_F#3.opus
</region>

<region>
hikey=f#4
hivel=127
lokey=f4
lovel=0
pitch_keycenter=f#4
sample=Horn_flatter_MF_F#4.opus
</region>

<region>
hikey=F2
hivel=127
lokey=C2
lovel=0
pitch_keycenter=F2
sample=Horn_flatter_MF_F2.opus
</region>

<region>
hikey=g#2
hivel=127
lokey=g2
lovel=0
pitch_keycenter=g#2
sample=Horn_flatter_MF_G#2.opus
</region>

<region>
hikey=g#3
hivel=127
lokey=g3
lovel=0
pitch_keycenter=g#3
sample=Horn_flatter_MF_G#3.opus
</region>

<region>
hikey=g#4
hivel=127
lokey=g4
lovel=0
pitch_keycenter=g#4
sample=Horn_flatter_MF_G#4.opus
</region>
</group>

<group>
group_label=FF
xf_cccurve=gain
xfin_hicc1=127
xfin_locc1=85
xfout_hicc1=127
xfout_locc1=127

<region>
hikey=a#2
hivel=127
lokey=a2
lovel=0
pitch_keycenter=a#2
sample=Horn_flatter_FF_A#2.opus
</region>

<region>
hikey=a#3
hivel=127
lokey=a3
lovel=0
pitch_keycenter=a#3
sample=Horn_flatter_FF_A#3.opus
</region>

<region>
hikey=a#4
hivel=127
lokey=a4
lovel=0
pitch_keycenter=a#4
sample=Horn_flatter_FF_A#4.opus
</region>

<region>
hikey=c3
hivel=127
lokey=b2
lovel=0
pitch_keycenter=c3
sample=Horn_flatter_FF_C3.opus
</region>

<region>
hikey=c4
hivel=127
lokey=b3
lovel=0
pitch_keycenter=c4
sample=Horn_flatter_FF_C4.opus
</region>

<region>
hikey=c5
hivel=127
lokey=b4
lovel=0
pitch_keycenter=c5
sample=Horn_flatter_FF_C5.opus
</region>

<region>
hikey=d3
hivel=127
lokey=c#3
lovel=0
pitch_keycenter=d3
sample=Horn_flatter_FF_D3.opus
</region>

<region>
hikey=d4
hivel=127
lokey=c#4
lovel=0
pitch_keycenter=d4
sample=Horn_flatter_FF_D4.opus
</region>

<region>
hikey=d5
hivel=127
lokey=c#5
lovel=0
pitch_keycenter=d5
sample=Horn_flatter_FF_D5.opus
</region>

<region>
hikey=e3
hivel=127
lokey=d#3
lovel=0
pitch_keycenter=e3
sample=Horn_flatter_FF_E3.opus
</region>

<region>
hikey=e4
hivel=127
lokey=d#4
lovel=0
pitch_keycenter=e4
sample=Horn_flatter_FF_E4.opus
</region>

<region>
hikey=A#5
hivel=127
lokey=d#5
lovel=0
pitch_keycenter=E5
sample=Horn_flatter_FF_E5.opus
</region>

<region>
hivel=127
key=f#2
lovel=0
sample=Horn_flatter_FF_F#2.opus
</region>

<region>
hikey=f#3
hivel=127
lokey=f3
lovel=0
pitch_keycenter=f#3
sample=Horn_flatter_FF_F#3.opus
</region>

<region>
hikey=f#4
hivel=127
lokey=f4
lovel=0
pitch_keycenter=f#4
sample=Horn_flatter_FF_F#4.opus
</region>

<region>
hikey=F2
hivel=127
lokey=C2
lovel=0
pitch_keycenter=F2
sample=Horn_flatter_FF_F2.opus
</region>

<region>
hikey=g#2
hivel=127
lokey=g2
lovel=0
pitch_keycenter=g#2
sample=Horn_flatter_FF_G#2.opus
</region>

<region>
hikey=g#3
hivel=127
lokey=g3
lovel=0
pitch_keycenter=g#3
sample=Horn_flatter_FF_G#3.opus
</region>

<region>
hikey=g#4
hivel=127
lokey=g4
lovel=0
pitch_keycenter=g#4
sample=Horn_flatter_FF_G#4.opus
</region>
</group>